{"title":"Halo.Nightfall.2014.BRRIP.x264.AC3.RoSubbed-TiTAN","uid":11760010,"size":1099789454,"categoryP":"video","categoryS":"movies","magnet":"?xt=urn:btih:06dd04e9e15140433fc0a5e4cf92826e68ee394f&amp;dn=Halo.Nightfall.2014.BRRIP.x264.AC3.RoSubbed-TiTAN&amp;tr=udp%3A%2F%2Ftracker.openbittorrent.com%3A80&amp;tr=udp%3A%2F%2Fopen.demonii.com%3A1337&amp;tr=udp%3A%2F%2Ftracker.coppersurfer.tk%3A6969&amp;tr=udp%3A%2F%2Fexodus.desync.com%3A6969","seeders":0,"leechers":1,"uploader":"TvTeam","files":4,"time":1426554829,"description":" &lt;a href=&quot;https://www.torrenting.com&quot; rel=&quot;nofollow&quot; target=&quot;_NEW&quot;&gt;https://www.torrenting.com&lt;/a&gt;\n\nSign up is OPEN - for the time being. Come and have fun.\n\n.[img]http://i.imgur.com/500AL67.jpg[/img]\n &lt;a href=&quot;\nhttp://www.imdb.com/title/tt3804114/&quot; rel=&quot;nofollow&quot; target=&quot;_NEW&quot;&gt;\nhttp://www.imdb.com/title/tt3804114/&lt;/a&gt;\n\nSource: BluRay WiKI THX\n\nGeneral\n\nFormat                                   : Matroska\nFormat version                           : Version 2\nFile size                                : 1.02 GiB\nDuration                                 : 1h 38mn\nOverall bit rate mode                    : Variable\nOverall bit rate                         : 1 493 Kbps\nEncoded date                             : UTC 2015-03-08 20:47:40\n\nVideo\nID                                       : 1\nFormat                                   : AVC\nFormat/Info                              : Advanced Video Codec\nFormat profile                           : &lt;a class=&quot;__cf_email__&quot; href=&quot;/cdn-cgi/l/email-protection&quot; data-cfemail=&quot;1058797778505c243e21&quot;&gt;[email&amp;#160;protected]&lt;/a&gt;&lt;script cf-hash='f9e31' type=&quot;text/javascript&quot;&gt;\n/* &lt;![CDATA[ */!function(){try{var t=&quot;currentScript&quot;in document?document.currentScript:function(){for(var t=document.getElementsByTagName(&quot;script&quot;),e=t.length;e--;)if(t[e].getAttribute(&quot;cf-hash&quot;))return t[e]}();if(t&amp;&amp;t.previousSibling){var e,r,n,i,c=t.previousSibling,a=c.getAttribute(&quot;data-cfemail&quot;);if(a){for(e=&quot;&quot;,r=parseInt(a.substr(0,2),16),n=2;a.length-n;n+=2)i=parseInt(a.substr(n,2),16)^r,e+=String.fromCharCode(i);e=document.createTextNode(e),c.parentNode.replaceChild(e,c)}}}catch(u){}}();/* ]]&gt; */&lt;/script&gt;\nFormat settings, CABAC                   : Yes\nFormat settings, ReFrames                : 3 frames\nCodec ID                                 : V_MPEG4/ISO/AVC\nDuration                                 : 1h 38mn\nBit rate mode                            : Variable\nBit rate                                 : 1 079 Kbps\nMaximum bit rate                         : 40.0 Mbps\nWidth                                    : 720 pixels\nHeight                                   : 304 pixels\nDisplay aspect ratio                     : 2.35:1\nFrame rate mode                          : Constant\nFrame rate                               : 23.976 fps\nColor space                              : YUV\nChroma subsampling                       : 4:2:0\nBit depth                                : 8 bits\nScan type                                : Progressive\nBits/(Pixel*Frame)                       : 0.206\nStream size                              : 758 MiB (72%)\nDefault                                  : Yes\nForced                                   : No\nColor primaries                          : BT.709\nTransfer characteristics                 : BT.709\nMatrix coefficients                      : BT.709\n\nAudio\nID                                       : 2\nFormat                                   : AC-3\nFormat/Info                              : Audio Coding 3\nMode extension                           : CM (complete main)\nFormat settings, Endianness              : Big\nCodec ID                                 : A_AC3\nDuration                                 : 1h 38mn\nBit rate mode                            : Constant\nBit rate                                 : 384 Kbps\nChannel(s)                               : 6 channels\nChannel positions                        : Front: L C R, Side: L R, LFE\nSampling rate                            : 48.0 KHz\nBit depth                                : 16 bits\nCompression mode                         : Lossy\nStream size                              : 270 MiB (26%)\nLanguage                                 : English\nDefault                                  : Yes\nForced                                   : No\n\n\n[img]http://i.imgur.com/bUF13ro.png[/img]\n[img]http://i.imgur.com/tIRhIzt.png[/img]\n[img]http://i.imgur.com/IFNHzH4.png[/img]\n[img]http://i.imgur.com/ANcaDVe.png[/img]\n[img]http://i.imgur.com/WguAcHO.png[/img]\n[img]http://i.imgur.com/GHGHhPV.png[/img]\n[img]http://i.imgur.com/Oitxspx.png[/img]","torrent":{"xt":"urn:btih:06dd04e9e15140433fc0a5e4cf92826e68ee394f","amp;dn":"Halo.Nightfall.2014.BRRIP.x264.AC3.RoSubbed-TiTAN","amp;tr":["udp%3A%2F%2Ftracker.openbittorrent.com%3A80","udp%3A%2F%2Fopen.demonii.com%3A1337","udp%3A%2F%2Ftracker.coppersurfer.tk%3A6969","udp%3A%2F%2Fexodus.desync.com%3A6969"],"infoHash":"06dd04e9e15140433fc0a5e4cf92826e68ee394f","infoHashBuffer":{"type":"Buffer","data":[6,221,4,233,225,81,64,67,63,192,165,228,207,146,130,110,104,238,57,79]},"announce":[],"urlList":[]}}